<svg width="24" height="24" viewBox="0 0 24 24" fill="none" xmlns="http://www.w3.org/2000/svg">
<path d="M8.002 7C8.014 4.825 8.11 3.647 8.879 2.879C9.757 2 11.172 2 14 2H15C17.828 2 19.243 2 20.121 2.879C21 3.757 21 5.172 21 8V16C21 18.828 21 20.243 20.121 21.121C19.243 22 17.828 22 15 22H14C11.171 22 9.757 22 8.879 21.121C8.11 20.353 8.014 19.175 8.002 17" stroke="#FF0000" stroke-width="1.5" stroke-linecap="round"/>
<path opacity="0.5" d="M8 19.5C5.643 19.5 4.464 19.5 3.732 18.768C3 18.035 3 16.857 3 14.5V9.5C3 7.143 3 5.964 3.732 5.232C4.464 4.5 5.643 4.5 8 4.5" stroke="#FF0000" stroke-width="1.5"/>
<path d="M15 12H6M6 12L8 14M6 12L8 10" stroke="#FF0000" stroke-width="1.5" stroke-linecap="round" stroke-linejoin="round"/>
</svg>
